<svg width="172" height="38" viewBox="0 0 172 38" fill="none" xmlns="http://www.w3.org/2000/svg">
<rect x="100" y="7" width="72" height="24" fill="#676565"/>
<rect width="100" height="38" fill="#D9D9D9"/>
<path d="M111.8 26.584C111.096 26.584 110.451 26.4987 109.864 26.328C109.277 26.1573 108.749 25.896 108.28 25.544L108.664 24.472C108.995 24.696 109.32 24.8773 109.64 25.016C109.96 25.1547 110.291 25.256 110.632 25.32C110.984 25.384 111.347 25.416 111.72 25.416C112.509 25.416 113.101 25.2133 113.496 24.808C113.891 24.4027 114.088 23.8267 114.088 23.08V20.824H114.248C114.077 21.432 113.725 21.9173 113.192 22.28C112.669 22.632 112.051 22.808 111.336 22.808C110.611 22.808 109.976 22.648 109.432 22.328C108.899 21.9973 108.483 21.5333 108.184 20.936C107.885 20.328 107.736 19.6187 107.736 18.808C107.736 17.9867 107.885 17.2773 108.184 16.68C108.483 16.0827 108.899 15.624 109.432 15.304C109.976 14.9733 110.611 14.808 111.336 14.808C112.051 14.808 112.669 14.984 113.192 15.336C113.715 15.688 114.061 16.1733 114.232 16.792L114.088 16.648L114.232 14.952H115.64C115.608 15.272 115.576 15.592 115.544 15.912C115.523 16.232 115.512 16.5467 115.512 16.856V22.904C115.512 24.0987 115.197 25.0107 114.568 25.64C113.949 26.2693 113.027 26.584 111.8 26.584ZM111.656 21.656C112.392 21.656 112.979 21.4053 113.416 20.904C113.853 20.4027 114.072 19.704 114.072 18.808C114.072 17.9013 113.853 17.2027 113.416 16.712C112.979 16.2213 112.392 15.976 111.656 15.976C110.909 15.976 110.312 16.2213 109.864 16.712C109.427 17.2027 109.208 17.9013 109.208 18.808C109.208 19.704 109.427 20.4027 109.864 20.904C110.312 21.4053 110.909 21.656 111.656 21.656ZM121.614 23.144C120.334 23.144 119.321 22.776 118.574 22.04C117.838 21.304 117.47 20.2907 117.47 19C117.47 18.1467 117.63 17.4107 117.95 16.792C118.281 16.1627 118.734 15.6773 119.31 15.336C119.886 14.984 120.558 14.808 121.326 14.808C122.062 14.808 122.686 14.968 123.198 15.288C123.71 15.5973 124.1 16.04 124.366 16.616C124.633 17.192 124.766 17.8747 124.766 18.664V19.144H118.606V18.28H123.774L123.502 18.488C123.502 17.656 123.316 17.0107 122.942 16.552C122.58 16.0933 122.041 15.864 121.326 15.864C120.548 15.864 119.945 16.136 119.518 16.68C119.092 17.2133 118.878 17.944 118.878 18.872V19.016C118.878 19.9973 119.118 20.7387 119.598 21.24C120.089 21.7413 120.766 21.992 121.63 21.992C122.11 21.992 122.558 21.9227 122.974 21.784C123.39 21.6453 123.79 21.416 124.174 21.096L124.654 22.104C124.292 22.4347 123.838 22.6907 123.294 22.872C122.761 23.0533 122.201 23.144 121.614 23.144ZM126.669 23V16.856C126.669 16.5467 126.658 16.232 126.637 15.912C126.616 15.592 126.584 15.272 126.541 14.952H127.949L128.109 16.68H127.917C128.162 16.072 128.541 15.608 129.053 15.288C129.565 14.968 130.162 14.808 130.845 14.808C131.794 14.808 132.509 15.0693 132.989 15.592C133.469 16.104 133.709 16.904 133.709 17.992V23H132.253V18.072C132.253 17.336 132.109 16.808 131.821 16.488C131.533 16.1573 131.085 15.992 130.477 15.992C129.752 15.992 129.176 16.2107 128.749 16.648C128.333 17.0853 128.125 17.6773 128.125 18.424V23H126.669ZM139.755 23.144C138.475 23.144 137.462 22.776 136.715 22.04C135.979 21.304 135.611 20.2907 135.611 19C135.611 18.1467 135.771 17.4107 136.091 16.792C136.422 16.1627 136.875 15.6773 137.451 15.336C138.027 14.984 138.699 14.808 139.467 14.808C140.203 14.808 140.827 14.968 141.339 15.288C141.851 15.5973 142.24 16.04 142.507 16.616C142.774 17.192 142.907 17.8747 142.907 18.664V19.144H136.747V18.28H141.915L141.643 18.488C141.643 17.656 141.456 17.0107 141.083 16.552C140.72 16.0933 140.182 15.864 139.467 15.864C138.688 15.864 138.086 16.136 137.659 16.68C137.232 17.2133 137.019 17.944 137.019 18.872V19.016C137.019 19.9973 137.259 20.7387 137.739 21.24C138.23 21.7413 138.907 21.992 139.771 21.992C140.251 21.992 140.699 21.9227 141.115 21.784C141.531 21.6453 141.931 21.416 142.315 21.096L142.795 22.104C142.432 22.4347 141.979 22.6907 141.435 22.872C140.902 23.0533 140.342 23.144 139.755 23.144ZM144.794 23V16.92C144.794 16.6 144.783 16.2747 144.762 15.944C144.751 15.6027 144.724 15.272 144.682 14.952H146.09L146.266 16.968L146.026 16.984C146.132 16.4933 146.314 16.088 146.57 15.768C146.836 15.4373 147.151 15.1973 147.514 15.048C147.887 14.888 148.271 14.808 148.666 14.808C148.836 14.808 148.98 14.8133 149.098 14.824C149.215 14.8347 149.332 14.8613 149.45 14.904L149.418 16.2C149.258 16.136 149.108 16.0987 148.97 16.088C148.842 16.0667 148.682 16.056 148.49 16.056C148.02 16.056 147.615 16.1627 147.274 16.376C146.943 16.5893 146.687 16.872 146.506 17.224C146.335 17.576 146.25 17.9547 146.25 18.36V23H144.794ZM153.726 23.144C153.022 23.144 152.403 22.9787 151.87 22.648C151.336 22.3173 150.92 21.8373 150.622 21.208C150.323 20.5787 150.174 19.832 150.174 18.968C150.174 18.104 150.323 17.3627 150.622 16.744C150.92 16.1147 151.336 15.6347 151.87 15.304C152.403 14.9733 153.022 14.808 153.726 14.808C154.44 14.808 155.059 14.9893 155.582 15.352C156.115 15.704 156.467 16.1893 156.638 16.808H156.446L156.622 14.952H158.03C157.998 15.272 157.966 15.592 157.934 15.912C157.912 16.232 157.902 16.5467 157.902 16.856V23H156.446V21.16H156.622C156.451 21.768 156.099 22.2533 155.566 22.616C155.043 22.968 154.43 23.144 153.726 23.144ZM154.062 21.992C154.787 21.992 155.368 21.736 155.806 21.224C156.243 20.712 156.462 19.96 156.462 18.968C156.462 17.976 156.243 17.2293 155.806 16.728C155.368 16.2267 154.787 15.976 154.062 15.976C153.336 15.976 152.75 16.2267 152.302 16.728C151.864 17.2293 151.646 17.976 151.646 18.968C151.646 19.96 151.864 20.712 152.302 21.224C152.739 21.736 153.326 21.992 154.062 21.992ZM160.325 23V16.92C160.325 16.6 160.314 16.2747 160.293 15.944C160.282 15.6027 160.256 15.272 160.213 14.952H161.621L161.797 16.968L161.557 16.984C161.664 16.4933 161.845 16.088 162.101 15.768C162.368 15.4373 162.682 15.1973 163.045 15.048C163.418 14.888 163.802 14.808 164.197 14.808C164.368 14.808 164.512 14.8133 164.629 14.824C164.746 14.8347 164.864 14.8613 164.981 14.904L164.949 16.2C164.789 16.136 164.64 16.0987 164.501 16.088C164.373 16.0667 164.213 16.056 164.021 16.056C163.552 16.056 163.146 16.1627 162.805 16.376C162.474 16.5893 162.218 16.872 162.037 17.224C161.866 17.576 161.781 17.9547 161.781 18.36V23H160.325ZM166.596 19.96L166.148 11.72H167.956L167.492 19.96H166.596ZM166.164 23V21.224H167.94V23H166.164Z" fill="white"/>
<path d="M7.36 22V20.896L11.296 16.768C11.808 16.2453 12.1867 15.744 12.432 15.264C12.688 14.784 12.816 14.288 12.816 13.776C12.816 13.1467 12.6187 12.672 12.224 12.352C11.84 12.0213 11.2747 11.856 10.528 11.856C9.952 11.856 9.408 11.9627 8.896 12.176C8.39467 12.3787 7.91467 12.6933 7.456 13.12L6.928 11.984C7.36533 11.5573 7.91467 11.216 8.576 10.96C9.248 10.704 9.952 10.576 10.688 10.576C11.84 10.576 12.7307 10.8427 13.36 11.376C13.9893 11.8987 14.304 12.6507 14.304 13.632C14.304 14.3467 14.128 15.0293 13.776 15.68C13.4347 16.32 12.928 16.9813 12.256 17.664L8.816 21.152V20.736H14.768V22H7.36ZM15.6898 22L19.3378 17.488V18.208L15.8978 13.952H17.6418L20.1538 17.168H19.6258L22.1378 13.952H23.8658L20.4738 18.176V17.52L24.0738 22H22.3138L19.6258 18.56H20.1538L17.4338 22H15.6898ZM26.1871 22V20.736H28.8271V11.984H29.5791L26.4271 13.936V12.48L29.2431 10.72H30.3151V20.736H32.7951V22H26.1871ZM39.3756 22V20.896L43.3116 16.768C43.8236 16.2453 44.2023 15.744 44.4476 15.264C44.7036 14.784 44.8316 14.288 44.8316 13.776C44.8316 13.1467 44.6343 12.672 44.2396 12.352C43.8556 12.0213 43.2903 11.856 42.5436 11.856C41.9676 11.856 41.4236 11.9627 40.9116 12.176C40.4103 12.3787 39.9303 12.6933 39.4716 13.12L38.9436 11.984C39.381 11.5573 39.9303 11.216 40.5916 10.96C41.2636 10.704 41.9676 10.576 42.7036 10.576C43.8556 10.576 44.7463 10.8427 45.3756 11.376C46.005 11.8987 46.3196 12.6507 46.3196 13.632C46.3196 14.3467 46.1436 15.0293 45.7916 15.68C45.4503 16.32 44.9436 16.9813 44.2716 17.664L40.8316 21.152V20.736H46.7836V22H39.3756ZM52.4094 22.144C51.1187 22.144 50.1267 21.648 49.4334 20.656C48.74 19.6533 48.3934 18.2187 48.3934 16.352C48.3934 14.4533 48.74 13.0187 49.4334 12.048C50.1267 11.0667 51.1187 10.576 52.4094 10.576C53.7107 10.576 54.7027 11.0667 55.3854 12.048C56.0787 13.0187 56.4254 14.448 56.4254 16.336C56.4254 18.2133 56.0787 19.6533 55.3854 20.656C54.692 21.648 53.7 22.144 52.4094 22.144ZM52.4094 20.88C53.2627 20.88 53.8974 20.512 54.3134 19.776C54.74 19.04 54.9534 17.8933 54.9534 16.336C54.9534 14.7787 54.74 13.6427 54.3134 12.928C53.8974 12.2027 53.2627 11.84 52.4094 11.84C51.5667 11.84 50.932 12.2027 50.5054 12.928C50.0787 13.6427 49.8654 14.7787 49.8654 16.336C49.8654 17.8933 50.0787 19.04 50.5054 19.776C50.932 20.512 51.5667 20.88 52.4094 20.88ZM62.0031 22.144C60.7125 22.144 59.7205 21.648 59.0271 20.656C58.3338 19.6533 57.9871 18.2187 57.9871 16.352C57.9871 14.4533 58.3338 13.0187 59.0271 12.048C59.7205 11.0667 60.7125 10.576 62.0031 10.576C63.3045 10.576 64.2965 11.0667 64.9791 12.048C65.6725 13.0187 66.0191 14.448 66.0191 16.336C66.0191 18.2133 65.6725 19.6533 64.9791 20.656C64.2858 21.648 63.2938 22.144 62.0031 22.144ZM62.0031 20.88C62.8565 20.88 63.4911 20.512 63.9071 19.776C64.3338 19.04 64.5471 17.8933 64.5471 16.336C64.5471 14.7787 64.3338 13.6427 63.9071 12.928C63.4911 12.2027 62.8565 11.84 62.0031 11.84C61.1605 11.84 60.5258 12.2027 60.0991 12.928C59.6725 13.6427 59.4591 14.7787 59.4591 16.336C59.4591 17.8933 59.6725 19.04 60.0991 19.776C60.5258 20.512 61.1605 20.88 62.0031 20.88ZM71.5969 22.144C70.3062 22.144 69.3142 21.648 68.6209 20.656C67.9275 19.6533 67.5809 18.2187 67.5809 16.352C67.5809 14.4533 67.9275 13.0187 68.6209 12.048C69.3142 11.0667 70.3062 10.576 71.5969 10.576C72.8982 10.576 73.8902 11.0667 74.5729 12.048C75.2662 13.0187 75.6129 14.448 75.6129 16.336C75.6129 18.2133 75.2662 19.6533 74.5729 20.656C73.8795 21.648 72.8875 22.144 71.5969 22.144ZM71.5969 20.88C72.4502 20.88 73.0849 20.512 73.5009 19.776C73.9275 19.04 74.1409 17.8933 74.1409 16.336C74.1409 14.7787 73.9275 13.6427 73.5009 12.928C73.0849 12.2027 72.4502 11.84 71.5969 11.84C70.7542 11.84 70.1195 12.2027 69.6929 12.928C69.2662 13.6427 69.0529 14.7787 69.0529 16.336C69.0529 17.8933 69.2662 19.04 69.6929 19.776C70.1195 20.512 70.7542 20.88 71.5969 20.88ZM77.6066 25.456V15.856C77.6066 15.5467 77.596 15.232 77.5746 14.912C77.5533 14.592 77.5213 14.272 77.4786 13.952H78.8866L79.0626 15.808H78.8866C79.0466 15.1893 79.388 14.704 79.9106 14.352C80.4333 13.9893 81.0573 13.808 81.7826 13.808C82.4973 13.808 83.1213 13.9733 83.6546 14.304C84.188 14.6347 84.5986 15.1147 84.8866 15.744C85.1853 16.3627 85.3346 17.104 85.3346 17.968C85.3346 18.832 85.1853 19.5787 84.8866 20.208C84.5986 20.8373 84.188 21.3173 83.6546 21.648C83.1213 21.9787 82.4973 22.144 81.7826 22.144C81.068 22.144 80.4493 21.968 79.9266 21.616C79.4146 21.2533 79.068 20.768 78.8866 20.16H79.0626V25.456H77.6066ZM81.4466 20.992C82.1826 20.992 82.7693 20.736 83.2066 20.224C83.644 19.712 83.8626 18.96 83.8626 17.968C83.8626 16.976 83.644 16.2293 83.2066 15.728C82.7693 15.2267 82.1826 14.976 81.4466 14.976C80.7106 14.976 80.124 15.2267 79.6866 15.728C79.26 16.2293 79.0466 16.976 79.0466 17.968C79.0466 18.96 79.26 19.712 79.6866 20.224C80.124 20.736 80.7106 20.992 81.4466 20.992ZM90.224 22.144C89.3813 22.144 88.7413 21.9147 88.304 21.456C87.8773 20.9867 87.664 20.2827 87.664 19.344V15.072H86.096V13.952H87.664V11.792L89.12 11.392V13.952H91.392V15.072H89.12V19.216C89.12 19.8347 89.2267 20.2773 89.44 20.544C89.664 20.8 89.984 20.928 90.4 20.928C90.6133 20.928 90.7947 20.912 90.944 20.88C91.104 20.8373 91.248 20.7893 91.376 20.736V21.936C91.216 22 91.0293 22.048 90.816 22.08C90.6133 22.1227 90.416 22.144 90.224 22.144ZM95.6391 22.144C94.9885 22.144 94.3805 22.0587 93.8151 21.888C93.2605 21.7173 92.8018 21.472 92.4391 21.152L92.9031 20.144C93.2978 20.4427 93.7298 20.672 94.1991 20.832C94.6791 20.9813 95.1698 21.056 95.6711 21.056C96.2791 21.056 96.7378 20.944 97.0471 20.72C97.3671 20.496 97.5271 20.1973 97.5271 19.824C97.5271 19.5253 97.4258 19.2853 97.2231 19.104C97.0205 18.9227 96.7005 18.7893 96.2631 18.704L94.7431 18.4C94.0605 18.24 93.5431 17.984 93.1911 17.632C92.8498 17.2693 92.6791 16.8053 92.6791 16.24C92.6791 15.7707 92.8071 15.3547 93.0631 14.992C93.3191 14.6187 93.6818 14.3307 94.1511 14.128C94.6311 13.9147 95.1911 13.808 95.8311 13.808C96.4178 13.808 96.9618 13.8933 97.4631 14.064C97.9751 14.2347 98.3965 14.4853 98.7271 14.816L98.2471 15.792C97.9165 15.504 97.5431 15.2853 97.1271 15.136C96.7218 14.976 96.3058 14.896 95.8791 14.896C95.2605 14.896 94.8018 15.0187 94.5031 15.264C94.2045 15.4987 94.0551 15.808 94.0551 16.192C94.0551 16.48 94.1458 16.72 94.3271 16.912C94.5085 17.0933 94.8018 17.232 95.2071 17.328L96.7271 17.632C97.4418 17.7813 97.9805 18.0267 98.3431 18.368C98.7058 18.7093 98.8871 19.1627 98.8871 19.728C98.8871 20.2293 98.7485 20.6613 98.4711 21.024C98.2045 21.3867 97.8258 21.664 97.3351 21.856C96.8551 22.048 96.2898 22.144 95.6391 22.144Z" fill="black"/>
<rect x="100" width="72" height="38" fill="#B8B8B8"/>
<rect width="100" height="38" fill="#FF0000"/>
<path d="M111.8 26.584C111.096 26.584 110.451 26.4987 109.864 26.328C109.277 26.1573 108.749 25.896 108.28 25.544L108.664 24.472C108.995 24.696 109.32 24.8773 109.64 25.016C109.96 25.1547 110.291 25.256 110.632 25.32C110.984 25.384 111.347 25.416 111.72 25.416C112.509 25.416 113.101 25.2133 113.496 24.808C113.891 24.4027 114.088 23.8267 114.088 23.08V20.824H114.248C114.077 21.432 113.725 21.9173 113.192 22.28C112.669 22.632 112.051 22.808 111.336 22.808C110.611 22.808 109.976 22.648 109.432 22.328C108.899 21.9973 108.483 21.5333 108.184 20.936C107.885 20.328 107.736 19.6187 107.736 18.808C107.736 17.9867 107.885 17.2773 108.184 16.68C108.483 16.0827 108.899 15.624 109.432 15.304C109.976 14.9733 110.611 14.808 111.336 14.808C112.051 14.808 112.669 14.984 113.192 15.336C113.715 15.688 114.061 16.1733 114.232 16.792L114.088 16.648L114.232 14.952H115.64C115.608 15.272 115.576 15.592 115.544 15.912C115.523 16.232 115.512 16.5467 115.512 16.856V22.904C115.512 24.0987 115.197 25.0107 114.568 25.64C113.949 26.2693 113.027 26.584 111.8 26.584ZM111.656 21.656C112.392 21.656 112.979 21.4053 113.416 20.904C113.853 20.4027 114.072 19.704 114.072 18.808C114.072 17.9013 113.853 17.2027 113.416 16.712C112.979 16.2213 112.392 15.976 111.656 15.976C110.909 15.976 110.312 16.2213 109.864 16.712C109.427 17.2027 109.208 17.9013 109.208 18.808C109.208 19.704 109.427 20.4027 109.864 20.904C110.312 21.4053 110.909 21.656 111.656 21.656ZM121.614 23.144C120.334 23.144 119.321 22.776 118.574 22.04C117.838 21.304 117.47 20.2907 117.47 19C117.47 18.1467 117.63 17.4107 117.95 16.792C118.281 16.1627 118.734 15.6773 119.31 15.336C119.886 14.984 120.558 14.808 121.326 14.808C122.062 14.808 122.686 14.968 123.198 15.288C123.71 15.5973 124.1 16.04 124.366 16.616C124.633 17.192 124.766 17.8747 124.766 18.664V19.144H118.606V18.28H123.774L123.502 18.488C123.502 17.656 123.316 17.0107 122.942 16.552C122.58 16.0933 122.041 15.864 121.326 15.864C120.548 15.864 119.945 16.136 119.518 16.68C119.092 17.2133 118.878 17.944 118.878 18.872V19.016C118.878 19.9973 119.118 20.7387 119.598 21.24C120.089 21.7413 120.766 21.992 121.63 21.992C122.11 21.992 122.558 21.9227 122.974 21.784C123.39 21.6453 123.79 21.416 124.174 21.096L124.654 22.104C124.292 22.4347 123.838 22.6907 123.294 22.872C122.761 23.0533 122.201 23.144 121.614 23.144ZM126.669 23V16.856C126.669 16.5467 126.658 16.232 126.637 15.912C126.616 15.592 126.584 15.272 126.541 14.952H127.949L128.109 16.68H127.917C128.162 16.072 128.541 15.608 129.053 15.288C129.565 14.968 130.162 14.808 130.845 14.808C131.794 14.808 132.509 15.0693 132.989 15.592C133.469 16.104 133.709 16.904 133.709 17.992V23H132.253V18.072C132.253 17.336 132.109 16.808 131.821 16.488C131.533 16.1573 131.085 15.992 130.477 15.992C129.752 15.992 129.176 16.2107 128.749 16.648C128.333 17.0853 128.125 17.6773 128.125 18.424V23H126.669ZM139.755 23.144C138.475 23.144 137.462 22.776 136.715 22.04C135.979 21.304 135.611 20.2907 135.611 19C135.611 18.1467 135.771 17.4107 136.091 16.792C136.422 16.1627 136.875 15.6773 137.451 15.336C138.027 14.984 138.699 14.808 139.467 14.808C140.203 14.808 140.827 14.968 141.339 15.288C141.851 15.5973 142.24 16.04 142.507 16.616C142.774 17.192 142.907 17.8747 142.907 18.664V19.144H136.747V18.28H141.915L141.643 18.488C141.643 17.656 141.456 17.0107 141.083 16.552C140.72 16.0933 140.182 15.864 139.467 15.864C138.688 15.864 138.086 16.136 137.659 16.68C137.232 17.2133 137.019 17.944 137.019 18.872V19.016C137.019 19.9973 137.259 20.7387 137.739 21.24C138.23 21.7413 138.907 21.992 139.771 21.992C140.251 21.992 140.699 21.9227 141.115 21.784C141.531 21.6453 141.931 21.416 142.315 21.096L142.795 22.104C142.432 22.4347 141.979 22.6907 141.435 22.872C140.902 23.0533 140.342 23.144 139.755 23.144ZM144.794 23V16.92C144.794 16.6 144.783 16.2747 144.762 15.944C144.751 15.6027 144.724 15.272 144.682 14.952H146.09L146.266 16.968L146.026 16.984C146.132 16.4933 146.314 16.088 146.57 15.768C146.836 15.4373 147.151 15.1973 147.514 15.048C147.887 14.888 148.271 14.808 148.666 14.808C148.836 14.808 148.98 14.8133 149.098 14.824C149.215 14.8347 149.332 14.8613 149.45 14.904L149.418 16.2C149.258 16.136 149.108 16.0987 148.97 16.088C148.842 16.0667 148.682 16.056 148.49 16.056C148.02 16.056 147.615 16.1627 147.274 16.376C146.943 16.5893 146.687 16.872 146.506 17.224C146.335 17.576 146.25 17.9547 146.25 18.36V23H144.794ZM153.726 23.144C153.022 23.144 152.403 22.9787 151.87 22.648C151.336 22.3173 150.92 21.8373 150.622 21.208C150.323 20.5787 150.174 19.832 150.174 18.968C150.174 18.104 150.323 17.3627 150.622 16.744C150.92 16.1147 151.336 15.6347 151.87 15.304C152.403 14.9733 153.022 14.808 153.726 14.808C154.44 14.808 155.059 14.9893 155.582 15.352C156.115 15.704 156.467 16.1893 156.638 16.808H156.446L156.622 14.952H158.03C157.998 15.272 157.966 15.592 157.934 15.912C157.912 16.232 157.902 16.5467 157.902 16.856V23H156.446V21.16H156.622C156.451 21.768 156.099 22.2533 155.566 22.616C155.043 22.968 154.43 23.144 153.726 23.144ZM154.062 21.992C154.787 21.992 155.368 21.736 155.806 21.224C156.243 20.712 156.462 19.96 156.462 18.968C156.462 17.976 156.243 17.2293 155.806 16.728C155.368 16.2267 154.787 15.976 154.062 15.976C153.336 15.976 152.75 16.2267 152.302 16.728C151.864 17.2293 151.646 17.976 151.646 18.968C151.646 19.96 151.864 20.712 152.302 21.224C152.739 21.736 153.326 21.992 154.062 21.992ZM160.325 23V16.92C160.325 16.6 160.314 16.2747 160.293 15.944C160.282 15.6027 160.256 15.272 160.213 14.952H161.621L161.797 16.968L161.557 16.984C161.664 16.4933 161.845 16.088 162.101 15.768C162.368 15.4373 162.682 15.1973 163.045 15.048C163.418 14.888 163.802 14.808 164.197 14.808C164.368 14.808 164.512 14.8133 164.629 14.824C164.746 14.8347 164.864 14.8613 164.981 14.904L164.949 16.2C164.789 16.136 164.64 16.0987 164.501 16.088C164.373 16.0667 164.213 16.056 164.021 16.056C163.552 16.056 163.146 16.1627 162.805 16.376C162.474 16.5893 162.218 16.872 162.037 17.224C161.866 17.576 161.781 17.9547 161.781 18.36V23H160.325ZM166.596 19.96L166.148 11.72H167.956L167.492 19.96H166.596ZM166.164 23V21.224H167.94V23H166.164Z" fill="black"/>
<path d="M7.36 22V20.896L11.296 16.768C11.808 16.2453 12.1867 15.744 12.432 15.264C12.688 14.784 12.816 14.288 12.816 13.776C12.816 13.1467 12.6187 12.672 12.224 12.352C11.84 12.0213 11.2747 11.856 10.528 11.856C9.952 11.856 9.408 11.9627 8.896 12.176C8.39467 12.3787 7.91467 12.6933 7.456 13.12L6.928 11.984C7.36533 11.5573 7.91467 11.216 8.576 10.96C9.248 10.704 9.952 10.576 10.688 10.576C11.84 10.576 12.7307 10.8427 13.36 11.376C13.9893 11.8987 14.304 12.6507 14.304 13.632C14.304 14.3467 14.128 15.0293 13.776 15.68C13.4347 16.32 12.928 16.9813 12.256 17.664L8.816 21.152V20.736H14.768V22H7.36ZM15.6898 22L19.3378 17.488V18.208L15.8978 13.952H17.6418L20.1538 17.168H19.6258L22.1378 13.952H23.8658L20.4738 18.176V17.52L24.0738 22H22.3138L19.6258 18.56H20.1538L17.4338 22H15.6898ZM26.1871 22V20.736H28.8271V11.984H29.5791L26.4271 13.936V12.48L29.2431 10.72H30.3151V20.736H32.7951V22H26.1871ZM39.3756 22V20.896L43.3116 16.768C43.8236 16.2453 44.2023 15.744 44.4476 15.264C44.7036 14.784 44.8316 14.288 44.8316 13.776C44.8316 13.1467 44.6343 12.672 44.2396 12.352C43.8556 12.0213 43.2903 11.856 42.5436 11.856C41.9676 11.856 41.4236 11.9627 40.9116 12.176C40.4103 12.3787 39.9303 12.6933 39.4716 13.12L38.9436 11.984C39.381 11.5573 39.9303 11.216 40.5916 10.96C41.2636 10.704 41.9676 10.576 42.7036 10.576C43.8556 10.576 44.7463 10.8427 45.3756 11.376C46.005 11.8987 46.3196 12.6507 46.3196 13.632C46.3196 14.3467 46.1436 15.0293 45.7916 15.68C45.4503 16.32 44.9436 16.9813 44.2716 17.664L40.8316 21.152V20.736H46.7836V22H39.3756ZM52.4094 22.144C51.1187 22.144 50.1267 21.648 49.4334 20.656C48.74 19.6533 48.3934 18.2187 48.3934 16.352C48.3934 14.4533 48.74 13.0187 49.4334 12.048C50.1267 11.0667 51.1187 10.576 52.4094 10.576C53.7107 10.576 54.7027 11.0667 55.3854 12.048C56.0787 13.0187 56.4254 14.448 56.4254 16.336C56.4254 18.2133 56.0787 19.6533 55.3854 20.656C54.692 21.648 53.7 22.144 52.4094 22.144ZM52.4094 20.88C53.2627 20.88 53.8974 20.512 54.3134 19.776C54.74 19.04 54.9534 17.8933 54.9534 16.336C54.9534 14.7787 54.74 13.6427 54.3134 12.928C53.8974 12.2027 53.2627 11.84 52.4094 11.84C51.5667 11.84 50.932 12.2027 50.5054 12.928C50.0787 13.6427 49.8654 14.7787 49.8654 16.336C49.8654 17.8933 50.0787 19.04 50.5054 19.776C50.932 20.512 51.5667 20.88 52.4094 20.88ZM62.0031 22.144C60.7125 22.144 59.7205 21.648 59.0271 20.656C58.3338 19.6533 57.9871 18.2187 57.9871 16.352C57.9871 14.4533 58.3338 13.0187 59.0271 12.048C59.7205 11.0667 60.7125 10.576 62.0031 10.576C63.3045 10.576 64.2965 11.0667 64.9791 12.048C65.6725 13.0187 66.0191 14.448 66.0191 16.336C66.0191 18.2133 65.6725 19.6533 64.9791 20.656C64.2858 21.648 63.2938 22.144 62.0031 22.144ZM62.0031 20.88C62.8565 20.88 63.4911 20.512 63.9071 19.776C64.3338 19.04 64.5471 17.8933 64.5471 16.336C64.5471 14.7787 64.3338 13.6427 63.9071 12.928C63.4911 12.2027 62.8565 11.84 62.0031 11.84C61.1605 11.84 60.5258 12.2027 60.0991 12.928C59.6725 13.6427 59.4591 14.7787 59.4591 16.336C59.4591 17.8933 59.6725 19.04 60.0991 19.776C60.5258 20.512 61.1605 20.88 62.0031 20.88ZM71.5969 22.144C70.3062 22.144 69.3142 21.648 68.6209 20.656C67.9275 19.6533 67.5809 18.2187 67.5809 16.352C67.5809 14.4533 67.9275 13.0187 68.6209 12.048C69.3142 11.0667 70.3062 10.576 71.5969 10.576C72.8982 10.576 73.8902 11.0667 74.5729 12.048C75.2662 13.0187 75.6129 14.448 75.6129 16.336C75.6129 18.2133 75.2662 19.6533 74.5729 20.656C73.8795 21.648 72.8875 22.144 71.5969 22.144ZM71.5969 20.88C72.4502 20.88 73.0849 20.512 73.5009 19.776C73.9275 19.04 74.1409 17.8933 74.1409 16.336C74.1409 14.7787 73.9275 13.6427 73.5009 12.928C73.0849 12.2027 72.4502 11.84 71.5969 11.84C70.7542 11.84 70.1195 12.2027 69.6929 12.928C69.2662 13.6427 69.0529 14.7787 69.0529 16.336C69.0529 17.8933 69.2662 19.04 69.6929 19.776C70.1195 20.512 70.7542 20.88 71.5969 20.88ZM77.6066 25.456V15.856C77.6066 15.5467 77.596 15.232 77.5746 14.912C77.5533 14.592 77.5213 14.272 77.4786 13.952H78.8866L79.0626 15.808H78.8866C79.0466 15.1893 79.388 14.704 79.9106 14.352C80.4333 13.9893 81.0573 13.808 81.7826 13.808C82.4973 13.808 83.1213 13.9733 83.6546 14.304C84.188 14.6347 84.5986 15.1147 84.8866 15.744C85.1853 16.3627 85.3346 17.104 85.3346 17.968C85.3346 18.832 85.1853 19.5787 84.8866 20.208C84.5986 20.8373 84.188 21.3173 83.6546 21.648C83.1213 21.9787 82.4973 22.144 81.7826 22.144C81.068 22.144 80.4493 21.968 79.9266 21.616C79.4146 21.2533 79.068 20.768 78.8866 20.16H79.0626V25.456H77.6066ZM81.4466 20.992C82.1826 20.992 82.7693 20.736 83.2066 20.224C83.644 19.712 83.8626 18.96 83.8626 17.968C83.8626 16.976 83.644 16.2293 83.2066 15.728C82.7693 15.2267 82.1826 14.976 81.4466 14.976C80.7106 14.976 80.124 15.2267 79.6866 15.728C79.26 16.2293 79.0466 16.976 79.0466 17.968C79.0466 18.96 79.26 19.712 79.6866 20.224C80.124 20.736 80.7106 20.992 81.4466 20.992ZM90.224 22.144C89.3813 22.144 88.7413 21.9147 88.304 21.456C87.8773 20.9867 87.664 20.2827 87.664 19.344V15.072H86.096V13.952H87.664V11.792L89.12 11.392V13.952H91.392V15.072H89.12V19.216C89.12 19.8347 89.2267 20.2773 89.44 20.544C89.664 20.8 89.984 20.928 90.4 20.928C90.6133 20.928 90.7947 20.912 90.944 20.88C91.104 20.8373 91.248 20.7893 91.376 20.736V21.936C91.216 22 91.0293 22.048 90.816 22.08C90.6133 22.1227 90.416 22.144 90.224 22.144ZM95.6391 22.144C94.9885 22.144 94.3805 22.0587 93.8151 21.888C93.2605 21.7173 92.8018 21.472 92.4391 21.152L92.9031 20.144C93.2978 20.4427 93.7298 20.672 94.1991 20.832C94.6791 20.9813 95.1698 21.056 95.6711 21.056C96.2791 21.056 96.7378 20.944 97.0471 20.72C97.3671 20.496 97.5271 20.1973 97.5271 19.824C97.5271 19.5253 97.4258 19.2853 97.2231 19.104C97.0205 18.9227 96.7005 18.7893 96.2631 18.704L94.7431 18.4C94.0605 18.24 93.5431 17.984 93.1911 17.632C92.8498 17.2693 92.6791 16.8053 92.6791 16.24C92.6791 15.7707 92.8071 15.3547 93.0631 14.992C93.3191 14.6187 93.6818 14.3307 94.1511 14.128C94.6311 13.9147 95.1911 13.808 95.8311 13.808C96.4178 13.808 96.9618 13.8933 97.4631 14.064C97.9751 14.2347 98.3965 14.4853 98.7271 14.816L98.2471 15.792C97.9165 15.504 97.5431 15.2853 97.1271 15.136C96.7218 14.976 96.3058 14.896 95.8791 14.896C95.2605 14.896 94.8018 15.0187 94.5031 15.264C94.2045 15.4987 94.0551 15.808 94.0551 16.192C94.0551 16.48 94.1458 16.72 94.3271 16.912C94.5085 17.0933 94.8018 17.232 95.2071 17.328L96.7271 17.632C97.4418 17.7813 97.9805 18.0267 98.3431 18.368C98.7058 18.7093 98.8871 19.1627 98.8871 19.728C98.8871 20.2293 98.7485 20.6613 98.4711 21.024C98.2045 21.3867 97.8258 21.664 97.3351 21.856C96.8551 22.048 96.2898 22.144 95.6391 22.144Z" fill="white"/>
</svg>
