<svg width="199" height="34" viewBox="0 0 199 34" fill="none" xmlns="http://www.w3.org/2000/svg">
<path d="M19.888 26.216C18.032 26.216 16.48 25.872 15.232 25.184C13.984 24.496 13.048 23.504 12.424 22.208C11.8 20.912 11.488 19.36 11.488 17.552C11.488 15.76 11.816 14.216 12.472 12.92C13.128 11.624 14.072 10.624 15.304 9.92C16.536 9.216 18.024 8.864 19.768 8.864C21 8.864 22.064 9.048 22.96 9.416C23.872 9.768 24.688 10.296 25.408 11L24.664 12.56C24.136 12.096 23.624 11.728 23.128 11.456C22.648 11.184 22.144 10.984 21.616 10.856C21.088 10.712 20.472 10.64 19.768 10.64C17.768 10.64 16.232 11.248 15.16 12.464C14.104 13.664 13.576 15.368 13.576 17.576C13.576 19.8 14.088 21.504 15.112 22.688C16.152 23.872 17.76 24.464 19.936 24.464C20.736 24.464 21.496 24.392 22.216 24.248C22.952 24.088 23.664 23.864 24.352 23.576L23.92 24.656V18.704H19.6V17.144H25.624V24.992C24.936 25.36 24.064 25.656 23.008 25.88C21.968 26.104 20.928 26.216 19.888 26.216ZM33.6987 26.216C32.2747 26.216 31.1947 25.824 30.4587 25.04C29.7387 24.256 29.3787 23.056 29.3787 21.44V13.952H31.3227V21.392C31.3227 22.496 31.5467 23.312 31.9947 23.84C32.4427 24.352 33.1387 24.608 34.0827 24.608C35.1387 24.608 35.9867 24.264 36.6267 23.576C37.2667 22.888 37.5867 21.968 37.5867 20.816V13.952H39.5307V26H37.6347V23.288H37.9467C37.6107 24.216 37.0667 24.936 36.3147 25.448C35.5787 25.96 34.7067 26.216 33.6987 26.216ZM43.3023 26V8.336H45.2463V26H43.3023ZM53.605 26.216C52.533 26.216 51.597 25.968 50.797 25.472C49.997 24.96 49.373 24.24 48.925 23.312C48.493 22.384 48.277 21.272 48.277 19.976C48.277 18.664 48.493 17.544 48.925 16.616C49.373 15.688 49.997 14.976 50.797 14.48C51.597 13.984 52.533 13.736 53.605 13.736C54.693 13.736 55.629 14.016 56.413 14.576C57.213 15.12 57.741 15.864 57.997 16.808H57.709L57.973 13.952H59.845C59.797 14.416 59.749 14.888 59.701 15.368C59.669 15.832 59.653 16.288 59.653 16.736V26H57.709V23.168H57.973C57.717 24.112 57.189 24.856 56.389 25.4C55.589 25.944 54.661 26.216 53.605 26.216ZM53.989 24.632C55.141 24.632 56.053 24.24 56.725 23.456C57.397 22.656 57.733 21.496 57.733 19.976C57.733 18.44 57.397 17.28 56.725 16.496C56.053 15.696 55.141 15.296 53.989 15.296C52.853 15.296 51.941 15.696 51.253 16.496C50.581 17.28 50.245 18.44 50.245 19.976C50.245 21.496 50.581 22.656 51.253 23.456C51.941 24.24 52.853 24.632 53.989 24.632ZM69.8854 26V9.08H80.6854V10.712H71.8294V16.592H80.1574V18.248H71.8294V24.344H80.6854V26H69.8854ZM82.1468 26L87.5468 19.304V20.264L82.4348 13.952H84.7868L88.6508 18.872H87.9548L91.7948 13.952H94.1228L89.0828 20.24V19.352L94.4348 26H92.0588L87.9308 20.744H88.6508L84.4748 26H82.1468ZM96.6226 31.184V16.736C96.6226 16.288 96.5986 15.832 96.5506 15.368C96.5186 14.888 96.4786 14.416 96.4306 13.952H98.3026L98.5666 16.808H98.2786C98.5346 15.864 99.0546 15.12 99.8386 14.576C100.623 14.016 101.559 13.736 102.647 13.736C103.735 13.736 104.671 13.984 105.455 14.48C106.255 14.976 106.879 15.688 107.327 16.616C107.775 17.544 107.999 18.664 107.999 19.976C107.999 21.272 107.775 22.384 107.327 23.312C106.895 24.24 106.279 24.96 105.479 25.472C104.679 25.968 103.735 26.216 102.647 26.216C101.575 26.216 100.647 25.944 99.8626 25.4C99.0786 24.856 98.5586 24.112 98.3026 23.168H98.5666V31.184H96.6226ZM102.263 24.632C103.415 24.632 104.327 24.24 104.999 23.456C105.687 22.656 106.031 21.496 106.031 19.976C106.031 18.44 105.687 17.28 104.999 16.496C104.327 15.696 103.415 15.296 102.263 15.296C101.127 15.296 100.215 15.696 99.5266 16.496C98.8546 17.28 98.5186 18.44 98.5186 19.976C98.5186 21.496 98.8546 22.656 99.5266 23.456C100.215 24.24 101.127 24.632 102.263 24.632ZM110.965 26V16.856C110.965 16.376 110.949 15.888 110.917 15.392C110.901 14.896 110.869 14.416 110.821 13.952H112.693L112.933 16.88L112.597 16.904C112.757 16.184 113.037 15.592 113.437 15.128C113.837 14.664 114.309 14.32 114.853 14.096C115.397 13.856 115.965 13.736 116.557 13.736C116.797 13.736 117.005 13.744 117.181 13.76C117.373 13.776 117.549 13.816 117.709 13.88L117.685 15.608C117.445 15.528 117.221 15.48 117.013 15.464C116.821 15.432 116.597 15.416 116.341 15.416C115.637 15.416 115.021 15.584 114.493 15.92C113.981 16.256 113.589 16.688 113.317 17.216C113.061 17.744 112.933 18.304 112.933 18.896V26H110.965ZM124.943 26.216C123.055 26.216 121.567 25.672 120.479 24.584C119.391 23.48 118.847 21.952 118.847 20C118.847 18.736 119.087 17.64 119.567 16.712C120.047 15.768 120.719 15.04 121.583 14.528C122.447 14 123.439 13.736 124.559 13.736C125.663 13.736 126.591 13.968 127.343 14.432C128.095 14.896 128.671 15.56 129.071 16.424C129.471 17.272 129.671 18.28 129.671 19.448V20.168H120.335V18.944H128.399L127.991 19.256C127.991 17.976 127.703 16.976 127.127 16.256C126.551 15.536 125.695 15.176 124.559 15.176C123.359 15.176 122.423 15.6 121.751 16.448C121.079 17.28 120.743 18.408 120.743 19.832V20.048C120.743 21.552 121.111 22.696 121.847 23.48C122.599 24.248 123.647 24.632 124.991 24.632C125.711 24.632 126.383 24.528 127.007 24.32C127.647 24.096 128.255 23.736 128.831 23.24L129.503 24.608C128.975 25.12 128.303 25.52 127.487 25.808C126.687 26.08 125.839 26.216 124.943 26.216ZM136.654 26.216C135.694 26.216 134.798 26.088 133.966 25.832C133.134 25.56 132.446 25.184 131.902 24.704L132.574 23.336C133.166 23.8 133.806 24.144 134.494 24.368C135.198 24.592 135.926 24.704 136.678 24.704C137.638 24.704 138.358 24.536 138.838 24.2C139.334 23.848 139.582 23.368 139.582 22.76C139.582 22.296 139.422 21.928 139.102 21.656C138.798 21.368 138.294 21.144 137.59 20.984L135.358 20.528C134.334 20.304 133.566 19.928 133.054 19.4C132.542 18.856 132.286 18.168 132.286 17.336C132.286 16.632 132.47 16.016 132.838 15.488C133.206 14.944 133.742 14.52 134.446 14.216C135.15 13.896 135.974 13.736 136.918 13.736C137.798 13.736 138.606 13.872 139.342 14.144C140.094 14.4 140.718 14.776 141.214 15.272L140.518 16.616C140.038 16.152 139.486 15.808 138.862 15.584C138.254 15.344 137.622 15.224 136.966 15.224C136.022 15.224 135.31 15.416 134.83 15.8C134.366 16.168 134.134 16.656 134.134 17.264C134.134 17.728 134.278 18.112 134.566 18.416C134.87 18.704 135.334 18.92 135.958 19.064L138.19 19.52C139.278 19.76 140.086 20.136 140.614 20.648C141.158 21.144 141.43 21.816 141.43 22.664C141.43 23.384 141.23 24.016 140.83 24.56C140.43 25.088 139.87 25.496 139.15 25.784C138.446 26.072 137.614 26.216 136.654 26.216ZM148.56 26.216C147.6 26.216 146.704 26.088 145.872 25.832C145.04 25.56 144.352 25.184 143.808 24.704L144.48 23.336C145.072 23.8 145.712 24.144 146.4 24.368C147.104 24.592 147.832 24.704 148.584 24.704C149.544 24.704 150.264 24.536 150.744 24.2C151.24 23.848 151.488 23.368 151.488 22.76C151.488 22.296 151.328 21.928 151.008 21.656C150.704 21.368 150.2 21.144 149.496 20.984L147.264 20.528C146.24 20.304 145.472 19.928 144.96 19.4C144.448 18.856 144.192 18.168 144.192 17.336C144.192 16.632 144.376 16.016 144.744 15.488C145.112 14.944 145.648 14.52 146.352 14.216C147.056 13.896 147.88 13.736 148.824 13.736C149.704 13.736 150.512 13.872 151.248 14.144C152 14.4 152.624 14.776 153.12 15.272L152.424 16.616C151.944 16.152 151.392 15.808 150.768 15.584C150.16 15.344 149.528 15.224 148.872 15.224C147.928 15.224 147.216 15.416 146.736 15.8C146.272 16.168 146.04 16.656 146.04 17.264C146.04 17.728 146.184 18.112 146.472 18.416C146.776 18.704 147.24 18.92 147.864 19.064L150.096 19.52C151.184 19.76 151.992 20.136 152.52 20.648C153.064 21.144 153.336 21.816 153.336 22.664C153.336 23.384 153.136 24.016 152.736 24.56C152.336 25.088 151.776 25.496 151.056 25.784C150.352 26.072 149.52 26.216 148.56 26.216Z" fill="white"/>
<mask id="path-2-outside-1_122_2" maskUnits="userSpaceOnUse" x="140" y="11" width="30" height="23" fill="black">
<rect fill="white" x="140" y="11" width="30" height="23"/>
<path d="M168 11H140V32H168V11Z"/>
</mask>
<path d="M168 32H170V34H168V32ZM140 30H168V34H140V30ZM166 32V11H170V32H166Z" fill="#FFF500" mask="url(#path-2-outside-1_122_2)"/>
<mask id="path-4-outside-2_122_2" maskUnits="userSpaceOnUse" x="0" y="0" width="27" height="25" fill="black">
<rect fill="white" width="27" height="25"/>
<path d="M2 25H27V2H2V25Z"/>
</mask>
<path d="M2 2H0V0H2V2ZM27 4H2V0H27V4ZM4 2V25H0V2H4Z" fill="#FFF500" mask="url(#path-4-outside-2_122_2)"/>
</svg>
