<svg width="97" height="64" viewBox="0 0 97 64" fill="none" xmlns="http://www.w3.org/2000/svg">
<path d="M19.888 26.216C18.032 26.216 16.48 25.872 15.232 25.184C13.984 24.496 13.048 23.504 12.424 22.208C11.8 20.912 11.488 19.36 11.488 17.552C11.488 15.76 11.816 14.216 12.472 12.92C13.128 11.624 14.072 10.624 15.304 9.92C16.536 9.216 18.024 8.864 19.768 8.864C21 8.864 22.064 9.048 22.96 9.416C23.872 9.768 24.688 10.296 25.408 11L24.664 12.56C24.136 12.096 23.624 11.728 23.128 11.456C22.648 11.184 22.144 10.984 21.616 10.856C21.088 10.712 20.472 10.64 19.768 10.64C17.768 10.64 16.232 11.248 15.16 12.464C14.104 13.664 13.576 15.368 13.576 17.576C13.576 19.8 14.088 21.504 15.112 22.688C16.152 23.872 17.76 24.464 19.936 24.464C20.736 24.464 21.496 24.392 22.216 24.248C22.952 24.088 23.664 23.864 24.352 23.576L23.92 24.656V18.704H19.6V17.144H25.624V24.992C24.936 25.36 24.064 25.656 23.008 25.88C21.968 26.104 20.928 26.216 19.888 26.216ZM33.6987 26.216C32.2747 26.216 31.1947 25.824 30.4587 25.04C29.7387 24.256 29.3787 23.056 29.3787 21.44V13.952H31.3227V21.392C31.3227 22.496 31.5467 23.312 31.9947 23.84C32.4427 24.352 33.1387 24.608 34.0827 24.608C35.1387 24.608 35.9867 24.264 36.6267 23.576C37.2667 22.888 37.5867 21.968 37.5867 20.816V13.952H39.5307V26H37.6347V23.288H37.9467C37.6107 24.216 37.0667 24.936 36.3147 25.448C35.5787 25.96 34.7067 26.216 33.6987 26.216ZM43.3023 26V8.336H45.2463V26H43.3023ZM53.605 26.216C52.533 26.216 51.597 25.968 50.797 25.472C49.997 24.96 49.373 24.24 48.925 23.312C48.493 22.384 48.277 21.272 48.277 19.976C48.277 18.664 48.493 17.544 48.925 16.616C49.373 15.688 49.997 14.976 50.797 14.48C51.597 13.984 52.533 13.736 53.605 13.736C54.693 13.736 55.629 14.016 56.413 14.576C57.213 15.12 57.741 15.864 57.997 16.808H57.709L57.973 13.952H59.845C59.797 14.416 59.749 14.888 59.701 15.368C59.669 15.832 59.653 16.288 59.653 16.736V26H57.709V23.168H57.973C57.717 24.112 57.189 24.856 56.389 25.4C55.589 25.944 54.661 26.216 53.605 26.216ZM53.989 24.632C55.141 24.632 56.053 24.24 56.725 23.456C57.397 22.656 57.733 21.496 57.733 19.976C57.733 18.44 57.397 17.28 56.725 16.496C56.053 15.696 55.141 15.296 53.989 15.296C52.853 15.296 51.941 15.696 51.253 16.496C50.581 17.28 50.245 18.44 50.245 19.976C50.245 21.496 50.581 22.656 51.253 23.456C51.941 24.24 52.853 24.632 53.989 24.632ZM12.112 56V39.08H22.912V40.712H14.056V46.592H22.384V48.248H14.056V54.344H22.912V56H12.112ZM24.3734 56L29.7734 49.304V50.264L24.6614 43.952H27.0134L30.8774 48.872H30.1814L34.0214 43.952H36.3494L31.3094 50.24V49.352L36.6614 56H34.2854L30.1574 50.744H30.8774L26.7014 56H24.3734ZM38.8491 61.184V46.736C38.8491 46.288 38.8251 45.832 38.7771 45.368C38.7451 44.888 38.7051 44.416 38.6571 43.952H40.5291L40.7931 46.808H40.5051C40.7611 45.864 41.2811 45.12 42.0651 44.576C42.8491 44.016 43.7851 43.736 44.8731 43.736C45.9611 43.736 46.8971 43.984 47.6811 44.48C48.4811 44.976 49.1051 45.688 49.5531 46.616C50.0011 47.544 50.2251 48.664 50.2251 49.976C50.2251 51.272 50.0011 52.384 49.5531 53.312C49.1211 54.24 48.5051 54.96 47.7051 55.472C46.9051 55.968 45.9611 56.216 44.8731 56.216C43.8011 56.216 42.8731 55.944 42.0891 55.4C41.3051 54.856 40.7851 54.112 40.5291 53.168H40.7931V61.184H38.8491ZM44.4891 54.632C45.6411 54.632 46.5531 54.24 47.2251 53.456C47.9131 52.656 48.2571 51.496 48.2571 49.976C48.2571 48.44 47.9131 47.28 47.2251 46.496C46.5531 45.696 45.6411 45.296 44.4891 45.296C43.3531 45.296 42.4411 45.696 41.7531 46.496C41.0811 47.28 40.7451 48.44 40.7451 49.976C40.7451 51.496 41.0811 52.656 41.7531 53.456C42.4411 54.24 43.3531 54.632 44.4891 54.632ZM53.1918 56V46.856C53.1918 46.376 53.1758 45.888 53.1438 45.392C53.1278 44.896 53.0958 44.416 53.0478 43.952H54.9198L55.1598 46.88L54.8238 46.904C54.9838 46.184 55.2638 45.592 55.6638 45.128C56.0638 44.664 56.5358 44.32 57.0798 44.096C57.6238 43.856 58.1918 43.736 58.7838 43.736C59.0238 43.736 59.2318 43.744 59.4078 43.76C59.5998 43.776 59.7758 43.816 59.9358 43.88L59.9118 45.608C59.6718 45.528 59.4478 45.48 59.2398 45.464C59.0478 45.432 58.8238 45.416 58.5678 45.416C57.8638 45.416 57.2478 45.584 56.7198 45.92C56.2078 46.256 55.8158 46.688 55.5438 47.216C55.2878 47.744 55.1598 48.304 55.1598 48.896V56H53.1918ZM67.1699 56.216C65.2819 56.216 63.7939 55.672 62.7059 54.584C61.6179 53.48 61.0739 51.952 61.0739 50C61.0739 48.736 61.3139 47.64 61.7939 46.712C62.2739 45.768 62.9459 45.04 63.8099 44.528C64.6739 44 65.6659 43.736 66.7859 43.736C67.8899 43.736 68.8179 43.968 69.5699 44.432C70.3219 44.896 70.8979 45.56 71.2979 46.424C71.6979 47.272 71.8979 48.28 71.8979 49.448V50.168H62.5619V48.944H70.6259L70.2179 49.256C70.2179 47.976 69.9299 46.976 69.3539 46.256C68.7779 45.536 67.9219 45.176 66.7859 45.176C65.5859 45.176 64.6499 45.6 63.9779 46.448C63.3059 47.28 62.9699 48.408 62.9699 49.832V50.048C62.9699 51.552 63.3379 52.696 64.0739 53.48C64.8259 54.248 65.8739 54.632 67.2179 54.632C67.9379 54.632 68.6099 54.528 69.2339 54.32C69.8739 54.096 70.4819 53.736 71.0579 53.24L71.7299 54.608C71.2019 55.12 70.5299 55.52 69.7139 55.808C68.9139 56.08 68.0659 56.216 67.1699 56.216ZM78.8806 56.216C77.9206 56.216 77.0246 56.088 76.1926 55.832C75.3606 55.56 74.6726 55.184 74.1286 54.704L74.8006 53.336C75.3926 53.8 76.0326 54.144 76.7206 54.368C77.4246 54.592 78.1526 54.704 78.9046 54.704C79.8646 54.704 80.5846 54.536 81.0646 54.2C81.5606 53.848 81.8086 53.368 81.8086 52.76C81.8086 52.296 81.6486 51.928 81.3286 51.656C81.0246 51.368 80.5206 51.144 79.8166 50.984L77.5846 50.528C76.5606 50.304 75.7926 49.928 75.2806 49.4C74.7686 48.856 74.5126 48.168 74.5126 47.336C74.5126 46.632 74.6966 46.016 75.0646 45.488C75.4326 44.944 75.9686 44.52 76.6726 44.216C77.3766 43.896 78.2006 43.736 79.1446 43.736C80.0246 43.736 80.8326 43.872 81.5686 44.144C82.3206 44.4 82.9446 44.776 83.4406 45.272L82.7446 46.616C82.2646 46.152 81.7126 45.808 81.0886 45.584C80.4806 45.344 79.8486 45.224 79.1926 45.224C78.2486 45.224 77.5366 45.416 77.0566 45.8C76.5926 46.168 76.3606 46.656 76.3606 47.264C76.3606 47.728 76.5046 48.112 76.7926 48.416C77.0966 48.704 77.5606 48.92 78.1846 49.064L80.4166 49.52C81.5046 49.76 82.3126 50.136 82.8406 50.648C83.3846 51.144 83.6566 51.816 83.6566 52.664C83.6566 53.384 83.4566 54.016 83.0566 54.56C82.6566 55.088 82.0966 55.496 81.3766 55.784C80.6726 56.072 79.8406 56.216 78.8806 56.216ZM90.7868 56.216C89.8268 56.216 88.9308 56.088 88.0988 55.832C87.2668 55.56 86.5788 55.184 86.0348 54.704L86.7068 53.336C87.2988 53.8 87.9388 54.144 88.6268 54.368C89.3308 54.592 90.0588 54.704 90.8108 54.704C91.7708 54.704 92.4908 54.536 92.9708 54.2C93.4668 53.848 93.7148 53.368 93.7148 52.76C93.7148 52.296 93.5548 51.928 93.2348 51.656C92.9308 51.368 92.4268 51.144 91.7228 50.984L89.4908 50.528C88.4668 50.304 87.6988 49.928 87.1868 49.4C86.6748 48.856 86.4188 48.168 86.4188 47.336C86.4188 46.632 86.6028 46.016 86.9708 45.488C87.3388 44.944 87.8748 44.52 88.5788 44.216C89.2828 43.896 90.1068 43.736 91.0508 43.736C91.9308 43.736 92.7388 43.872 93.4748 44.144C94.2268 44.4 94.8508 44.776 95.3468 45.272L94.6508 46.616C94.1708 46.152 93.6188 45.808 92.9948 45.584C92.3868 45.344 91.7548 45.224 91.0988 45.224C90.1548 45.224 89.4428 45.416 88.9628 45.8C88.4988 46.168 88.2668 46.656 88.2668 47.264C88.2668 47.728 88.4108 48.112 88.6988 48.416C89.0028 48.704 89.4668 48.92 90.0908 49.064L92.3228 49.52C93.4108 49.76 94.2188 50.136 94.7468 50.648C95.2908 51.144 95.5628 51.816 95.5628 52.664C95.5628 53.384 95.3628 54.016 94.9628 54.56C94.5628 55.088 94.0028 55.496 93.2828 55.784C92.5788 56.072 91.7468 56.216 90.7868 56.216Z" fill="white"/>
<mask id="path-2-outside-1_123_3" maskUnits="userSpaceOnUse" x="0" y="0" width="26" height="25" fill="black">
<rect fill="white" width="26" height="25"/>
<path d="M2 25H26V2H2V25Z"/>
</mask>
<path d="M2 25H26H2ZM26 0H0L4 4H26V0ZM0 0V25H4V4L0 0ZM26 25V2V25Z" fill="#FFF500" mask="url(#path-2-outside-1_123_3)"/>
</svg>
