<?xml version="1.0" encoding="utf-8"?>
<!-- Generator: Adobe Illustrator 16.0.0, SVG Export Plug-In . SVG Version: 6.00 Build 0)  -->
<!DOCTYPE svg PUBLIC "-//W3C//DTD SVG 1.0//EN" "http://www.w3.org/TR/2001/REC-SVG-20010904/DTD/svg10.dtd">
<svg version="1.0" id="Layer_1" xmlns="http://www.w3.org/2000/svg" xmlns:xlink="http://www.w3.org/1999/xlink" x="0px" y="0px"
	 width="100px" height="100px" viewBox="0 0 100 100" enable-background="new 0 0 100 100" xml:space="preserve">
<rect x="65.521" y="51.381" transform="matrix(0.707 -0.7072 0.7072 0.707 -18.5204 64.721)" fill="#8BC34A" width="6.666" height="6.665"/>
<path fill="#263238" d="M38.285,10H10l80,80V61.719L38.285,10z M83.333,73.906L26.095,16.667h9.427l47.811,47.812V73.906z"/>
<rect x="56.094" y="41.954" transform="matrix(0.7071 -0.7071 0.7071 0.7071 -14.6164 55.2887)" fill="#8BC34A" width="6.665" height="6.666"/>
<polygon fill="#8BC34A" points="78.281,50 90,38.285 90,10 64.141,35.859 68.854,40.573 83.333,26.094 83.333,35.522 73.566,45.286 
	"/>
<polygon fill="#8BC34A" points="59.427,59.427 35.519,83.333 26.095,83.333 54.714,54.714 50,50 10,90 38.281,90 64.141,64.141 "/>
</svg>
