<svg width="171" height="57" viewBox="0 0 171 57" fill="none" xmlns="http://www.w3.org/2000/svg">
<rect width="171" height="57" fill="#FF0000"/>
<path d="M88.992 50.144C88.5013 50.144 88.016 50.0907 87.536 49.984C87.0667 49.8773 86.624 49.728 86.208 49.536C85.792 49.3333 85.4293 49.088 85.12 48.8L85.648 47.648C86.1707 48.064 86.704 48.3733 87.248 48.576C87.792 48.768 88.3627 48.864 88.96 48.864C89.7493 48.864 90.368 48.656 90.816 48.24C91.264 47.824 91.488 47.2693 91.488 46.576C91.488 45.8613 91.2747 45.2853 90.848 44.848C90.4213 44.4 89.8293 44.176 89.072 44.176C88.5493 44.176 88.0747 44.2827 87.648 44.496C87.232 44.6987 86.864 45.024 86.544 45.472H85.488V38.72H92.256V39.984H86.928V44.256H86.544C86.832 43.8293 87.2213 43.4987 87.712 43.264C88.2133 43.0293 88.7733 42.912 89.392 42.912C90.1173 42.912 90.7413 43.0613 91.264 43.36C91.7973 43.6587 92.208 44.08 92.496 44.624C92.7947 45.1573 92.944 45.7813 92.944 46.496C92.944 47.2107 92.784 47.8453 92.464 48.4C92.144 48.944 91.6853 49.3707 91.088 49.68C90.5013 49.9893 89.8027 50.144 88.992 50.144ZM98.3938 50.144C97.1031 50.144 96.1111 49.648 95.4178 48.656C94.7244 47.6533 94.3778 46.2187 94.3778 44.352C94.3778 42.4533 94.7244 41.0187 95.4178 40.048C96.1111 39.0667 97.1031 38.576 98.3938 38.576C99.6951 38.576 100.687 39.0667 101.37 40.048C102.063 41.0187 102.41 42.448 102.41 44.336C102.41 46.2133 102.063 47.6533 101.37 48.656C100.676 49.648 99.6844 50.144 98.3938 50.144ZM98.3938 48.88C99.2471 48.88 99.8818 48.512 100.298 47.776C100.724 47.04 100.938 45.8933 100.938 44.336C100.938 42.7787 100.724 41.6427 100.298 40.928C99.8818 40.2027 99.2471 39.84 98.3938 39.84C97.5511 39.84 96.9164 40.2027 96.4898 40.928C96.0631 41.6427 95.8498 42.7787 95.8498 44.336C95.8498 45.8933 96.0631 47.04 96.4898 47.776C96.9164 48.512 97.5511 48.88 98.3938 48.88ZM107.988 50.144C106.697 50.144 105.705 49.648 105.012 48.656C104.318 47.6533 103.972 46.2187 103.972 44.352C103.972 42.4533 104.318 41.0187 105.012 40.048C105.705 39.0667 106.697 38.576 107.988 38.576C109.289 38.576 110.281 39.0667 110.964 40.048C111.657 41.0187 112.003 42.448 112.003 44.336C112.003 46.2133 111.657 47.6533 110.964 48.656C110.27 49.648 109.278 50.144 107.988 50.144ZM107.988 48.88C108.841 48.88 109.476 48.512 109.892 47.776C110.318 47.04 110.532 45.8933 110.532 44.336C110.532 42.7787 110.318 41.6427 109.892 40.928C109.476 40.2027 108.841 39.84 107.988 39.84C107.145 39.84 106.51 40.2027 106.084 40.928C105.657 41.6427 105.444 42.7787 105.444 44.336C105.444 45.8933 105.657 47.04 106.084 47.776C106.51 48.512 107.145 48.88 107.988 48.88ZM113.997 53.456V43.856C113.997 43.5467 113.987 43.232 113.965 42.912C113.944 42.592 113.912 42.272 113.869 41.952H115.277L115.453 43.808H115.277C115.437 43.1893 115.779 42.704 116.301 42.352C116.824 41.9893 117.448 41.808 118.173 41.808C118.888 41.808 119.512 41.9733 120.045 42.304C120.579 42.6347 120.989 43.1147 121.277 43.744C121.576 44.3627 121.725 45.104 121.725 45.968C121.725 46.832 121.576 47.5787 121.277 48.208C120.989 48.8373 120.579 49.3173 120.045 49.648C119.512 49.9787 118.888 50.144 118.173 50.144C117.459 50.144 116.84 49.968 116.317 49.616C115.805 49.2533 115.459 48.768 115.277 48.16H115.453V53.456H113.997ZM117.837 48.992C118.573 48.992 119.16 48.736 119.597 48.224C120.035 47.712 120.253 46.96 120.253 45.968C120.253 44.976 120.035 44.2293 119.597 43.728C119.16 43.2267 118.573 42.976 117.837 42.976C117.101 42.976 116.515 43.2267 116.077 43.728C115.651 44.2293 115.437 44.976 115.437 45.968C115.437 46.96 115.651 47.712 116.077 48.224C116.515 48.736 117.101 48.992 117.837 48.992ZM126.615 50.144C125.772 50.144 125.132 49.9147 124.695 49.456C124.268 48.9867 124.055 48.2827 124.055 47.344V43.072H122.487V41.952H124.055V39.792L125.511 39.392V41.952H127.783V43.072H125.511V47.216C125.511 47.8347 125.617 48.2773 125.831 48.544C126.055 48.8 126.375 48.928 126.791 48.928C127.004 48.928 127.185 48.912 127.335 48.88C127.495 48.8373 127.639 48.7893 127.767 48.736V49.936C127.607 50 127.42 50.048 127.207 50.08C127.004 50.1227 126.807 50.144 126.615 50.144ZM132.03 50.144C131.379 50.144 130.771 50.0587 130.206 49.888C129.651 49.7173 129.192 49.472 128.83 49.152L129.294 48.144C129.688 48.4427 130.12 48.672 130.59 48.832C131.07 48.9813 131.56 49.056 132.062 49.056C132.67 49.056 133.128 48.944 133.438 48.72C133.758 48.496 133.918 48.1973 133.918 47.824C133.918 47.5253 133.816 47.2853 133.614 47.104C133.411 46.9227 133.091 46.7893 132.654 46.704L131.134 46.4C130.451 46.24 129.934 45.984 129.582 45.632C129.24 45.2693 129.07 44.8053 129.07 44.24C129.07 43.7707 129.198 43.3547 129.454 42.992C129.71 42.6187 130.072 42.3307 130.542 42.128C131.022 41.9147 131.582 41.808 132.222 41.808C132.808 41.808 133.352 41.8933 133.854 42.064C134.366 42.2347 134.787 42.4853 135.118 42.816L134.638 43.792C134.307 43.504 133.934 43.2853 133.518 43.136C133.112 42.976 132.696 42.896 132.27 42.896C131.651 42.896 131.192 43.0187 130.894 43.264C130.595 43.4987 130.446 43.808 130.446 44.192C130.446 44.48 130.536 44.72 130.718 44.912C130.899 45.0933 131.192 45.232 131.598 45.328L133.118 45.632C133.832 45.7813 134.371 46.0267 134.734 46.368C135.096 46.7093 135.278 47.1627 135.278 47.728C135.278 48.2293 135.139 48.6613 134.862 49.024C134.595 49.3867 134.216 49.664 133.726 49.856C133.246 50.048 132.68 50.144 132.03 50.144Z" fill="white"/>
<path d="M88.4439 28.992C88.2625 28.992 88.0599 28.9813 87.8359 28.96C87.6119 28.9387 87.3825 28.9013 87.1479 28.848V27.632C87.3505 27.6747 87.5425 27.7067 87.7239 27.728C87.9052 27.7493 88.0599 27.76 88.1879 27.76C88.6785 27.76 89.0412 27.6107 89.2759 27.312C89.5212 27.0133 89.6439 26.5387 89.6439 25.888V14.72H91.1479V25.904C91.1479 26.576 91.0519 27.1413 90.8599 27.6C90.6679 28.0587 90.3745 28.4053 89.9799 28.64C89.5852 28.8747 89.0732 28.992 88.4439 28.992ZM96.6025 26.144C95.6318 26.144 94.9012 25.8827 94.4105 25.36C93.9305 24.8373 93.6905 24.032 93.6905 22.944V17.952H95.1465V22.912C95.1465 23.616 95.2905 24.1333 95.5785 24.464C95.8665 24.7947 96.3145 24.96 96.9225 24.96C97.5838 24.96 98.1172 24.7413 98.5225 24.304C98.9385 23.856 99.1465 23.264 99.1465 22.528V17.952H100.602V26H99.1945V24.224H99.4025C99.1785 24.832 98.8212 25.3067 98.3305 25.648C97.8398 25.9787 97.2638 26.144 96.6025 26.144ZM106.123 26.144C105.419 26.144 104.8 25.9787 104.267 25.648C103.734 25.3173 103.318 24.8373 103.019 24.208C102.72 23.5787 102.571 22.832 102.571 21.968C102.571 21.104 102.72 20.3627 103.019 19.744C103.318 19.1147 103.734 18.6347 104.267 18.304C104.8 17.9733 105.419 17.808 106.123 17.808C106.838 17.808 107.456 17.9893 107.979 18.352C108.512 18.704 108.864 19.1893 109.035 19.808H108.843L109.019 17.952H110.427C110.395 18.272 110.363 18.592 110.331 18.912C110.31 19.232 110.299 19.5467 110.299 19.856V26H108.843V24.16H109.019C108.848 24.768 108.496 25.2533 107.963 25.616C107.44 25.968 106.827 26.144 106.123 26.144ZM106.459 24.992C107.184 24.992 107.766 24.736 108.203 24.224C108.64 23.712 108.859 22.96 108.859 21.968C108.859 20.976 108.64 20.2293 108.203 19.728C107.766 19.2267 107.184 18.976 106.459 18.976C105.734 18.976 105.147 19.2267 104.699 19.728C104.262 20.2293 104.043 20.976 104.043 21.968C104.043 22.96 104.262 23.712 104.699 24.224C105.136 24.736 105.723 24.992 106.459 24.992ZM112.738 26V19.856C112.738 19.5467 112.728 19.232 112.706 18.912C112.685 18.592 112.653 18.272 112.61 17.952H114.018L114.178 19.68H113.986C114.232 19.072 114.61 18.608 115.122 18.288C115.634 17.968 116.232 17.808 116.914 17.808C117.864 17.808 118.578 18.0693 119.058 18.592C119.538 19.104 119.778 19.904 119.778 20.992V26H118.322V21.072C118.322 20.336 118.178 19.808 117.89 19.488C117.602 19.1573 117.154 18.992 116.546 18.992C115.821 18.992 115.245 19.2107 114.818 19.648C114.402 20.0853 114.194 20.6773 114.194 21.424V26H112.738ZM121.168 29.52C121.008 29.52 120.816 29.504 120.592 29.472C120.358 29.44 120.166 29.392 120.016 29.328V28.128C120.144 28.1707 120.294 28.208 120.464 28.24C120.635 28.2827 120.79 28.304 120.928 28.304C121.366 28.304 121.691 28.1653 121.904 27.888C122.128 27.6213 122.24 27.1787 122.24 26.56V17.952H123.696V26.688C123.696 27.616 123.488 28.32 123.072 28.8C122.656 29.28 122.022 29.52 121.168 29.52ZM122.096 16.192V14.624H123.824V16.192H122.096ZM129.443 26.144C128.654 26.144 127.971 25.9787 127.395 25.648C126.819 25.3067 126.371 24.8267 126.051 24.208C125.731 23.5787 125.571 22.832 125.571 21.968C125.571 21.1147 125.731 20.3787 126.051 19.76C126.371 19.1307 126.819 18.6507 127.395 18.32C127.971 17.9787 128.654 17.808 129.443 17.808C130.232 17.808 130.915 17.9787 131.491 18.32C132.078 18.6507 132.526 19.1307 132.835 19.76C133.155 20.3787 133.315 21.1147 133.315 21.968C133.315 22.832 133.155 23.5787 132.835 24.208C132.526 24.8267 132.078 25.3067 131.491 25.648C130.915 25.9787 130.232 26.144 129.443 26.144ZM129.443 24.992C130.168 24.992 130.75 24.736 131.187 24.224C131.624 23.712 131.843 22.96 131.843 21.968C131.843 20.976 131.624 20.2293 131.187 19.728C130.75 19.2267 130.168 18.976 129.443 18.976C128.707 18.976 128.12 19.2267 127.683 19.728C127.256 20.2293 127.043 20.976 127.043 21.968C127.043 22.96 127.256 23.712 127.683 24.224C128.12 24.736 128.707 24.992 129.443 24.992Z" fill="white"/>
<rect x="22" y="11" width="53" height="37" rx="18.5" fill="#D9D9D9" fill-opacity="0.88"/>
<path d="M48.3419 31.17C48.2024 31.155 48.0613 31.155 47.9219 31.17C46.4378 31.1272 45.0312 30.5915 43.9993 29.6763C42.9674 28.761 42.391 27.5378 42.3919 26.265C42.3919 23.55 44.9469 21.345 48.1319 21.345C49.6359 21.3427 51.0807 21.8472 52.1548 22.7496C53.2289 23.652 53.8463 24.88 53.8739 26.169C53.9014 27.4579 53.3369 28.7045 52.3021 29.64C51.2673 30.5755 49.845 31.125 48.3419 31.17ZM59.9269 41.07C56.7108 43.6036 52.4999 45.0066 48.1319 45C43.5819 45 39.4519 43.515 36.3369 41.07C36.5119 39.66 37.5619 38.28 39.4344 37.2C44.2294 34.47 52.0694 34.47 56.8294 37.2C58.7019 38.28 59.7519 39.66 59.9269 41.07Z" stroke="black" stroke-width="1.5" stroke-linecap="round" stroke-linejoin="round"/>
<path d="M48.1319 45C57.7971 45 65.6319 38.2845 65.6319 30C65.6319 21.7155 57.7971 15 48.1319 15C38.4666 15 30.6319 21.7155 30.6319 30C30.6319 38.2845 38.4666 45 48.1319 45Z" stroke="black" stroke-width="1.5" stroke-linecap="round" stroke-linejoin="round"/>
</svg>
